<svg width="34" height="24" viewBox="0 0 34 24" fill="none" xmlns="http://www.w3.org/2000/svg">
<path d="M32.753 1.40121H9.76779C9.41697 1.40121 9.08241 1.54877 8.84588 1.80815L0.325124 11.1602C-0.108375 11.6361 -0.108375 12.3634 0.325124 12.8398L8.84588 22.1918C9.08235 22.4512 9.41697 22.5987 9.76779 22.5987H32.753C33.4417 22.5987 33.9999 22.0405 33.9999 21.3522V2.64819C34 1.95942 33.4417 1.40121 32.753 1.40121ZM31.5061 20.1049H10.3185L2.93415 11.9997L10.3185 3.89463H31.5061V20.1049H31.5061Z" fill="#E05A5A"/>
<path d="M26.3142 7.70445C25.8237 7.22061 25.0348 7.22519 24.5506 7.71527L17.8171 14.5319C17.3333 15.0219 17.3379 15.8112 17.8279 16.2955C18.0711 16.5353 18.3874 16.655 18.7041 16.655C19.0254 16.655 19.3475 16.5311 19.5915 16.2846L26.325 9.46806C26.8089 8.97798 26.8043 8.18868 26.3142 7.70445Z" fill="#E05A5A"/>
<path d="M26.3558 14.4791L19.5396 7.74602C19.0496 7.26218 18.2599 7.26716 17.7765 7.75684C17.2923 8.24692 17.2969 9.03622 17.7869 9.52045L24.603 16.2539C24.8462 16.4937 25.1625 16.6134 25.4792 16.6134C25.8005 16.6134 26.1226 16.4895 26.3662 16.2426C26.8505 15.7526 26.8459 14.9633 26.3558 14.4791Z" fill="#E05A5A"/>
</svg>
