<svg width="18" height="18" viewBox="0 0 18 18" fill="none" xmlns="http://www.w3.org/2000/svg">
<g clip-path="url(#clip0)">
<path d="M17.609 12.3253C17.5817 12.1688 17.5131 12.0358 17.4038 11.9263C17.1615 11.6839 16.8801 11.633 16.5596 11.7737C15.6997 12.1724 14.8084 12.3716 13.8861 12.3716C12.7291 12.3716 11.6621 12.0866 10.685 11.5158C9.70789 10.9452 8.93413 10.1713 8.36351 9.19413C7.79268 8.21695 7.50745 7.14995 7.50745 5.99293C7.50745 5.09399 7.6854 4.23994 8.04099 3.43082C8.39665 2.62174 8.91068 1.91234 9.58287 1.30258C9.84092 1.06035 9.89965 0.778854 9.75894 0.458303C9.62604 0.137917 9.38763 -0.014453 9.04371 0.00111256C7.84771 0.0479734 6.71422 0.315873 5.64324 0.804276C4.5723 1.2928 3.6518 1.93563 2.88178 2.73313C2.11185 3.53046 1.50204 4.47445 1.05253 5.5649C0.603143 6.65543 0.378326 7.79869 0.378326 8.99469C0.378326 10.2142 0.616778 11.379 1.0936 12.489C1.57054 13.599 2.21144 14.5566 3.01666 15.3618C3.82179 16.1667 4.77938 16.8078 5.88954 17.2848C6.99958 17.7615 8.16416 18 9.38356 18C11.1348 18 12.7508 17.5251 14.232 16.5753C15.7134 15.6256 16.8215 14.3573 17.5564 12.7704C17.619 12.6298 17.6365 12.4814 17.609 12.3253ZM12.5906 15.7778C11.5784 16.2587 10.5093 16.499 9.38356 16.499C8.36737 16.499 7.39619 16.2997 6.46977 15.9011C5.54348 15.5026 4.74603 14.9691 4.07762 14.3006C3.40937 13.6323 2.87595 12.8349 2.47712 11.9086C2.07846 10.9822 1.8791 10.011 1.8791 8.99477C1.8791 7.31411 2.37749 5.81325 3.37417 4.49203C4.37077 3.17101 5.65482 2.27594 7.22604 1.80692C6.41306 3.09672 6.00651 4.49203 6.00651 5.99301C6.00651 7.41584 6.35823 8.73299 7.06188 9.94488C7.76533 11.1564 8.72299 12.1138 9.93472 12.8176C11.1462 13.5211 12.4632 13.8729 13.8861 13.8729C14.3237 13.8729 14.7539 13.8378 15.176 13.7673C14.4648 14.6273 13.6028 15.2974 12.5906 15.7778Z" fill="white"/>
</g>
<defs>
<clipPath id="clip0">
<rect width="18" height="18" fill="white"/>
</clipPath>
</defs>
</svg>
