<svg width="18" height="18" viewBox="0 0 18 18" fill="none" xmlns="http://www.w3.org/2000/svg">
<path d="M17.5227 11.4875L15.7135 8.99493L17.5227 6.50252C17.5829 6.41539 17.5962 6.31834 17.5628 6.21119C17.5358 6.11055 17.4689 6.04356 17.3617 6.01011L14.4272 5.04531V1.96985C14.4272 1.86269 14.3835 1.77557 14.2962 1.70862C14.1959 1.64166 14.0986 1.62822 14.005 1.66838L11.0703 2.61305L9.26128 0.120636C9.20094 0.0402355 9.11389 0 8.9999 0C8.88606 0 8.79897 0.0403411 8.73864 0.120636L6.92949 2.61309L3.9948 1.66842C3.90109 1.62822 3.80386 1.64166 3.70333 1.70865C3.61624 1.77564 3.57269 1.86273 3.57269 1.96988V5.04531L0.638039 6.01011C0.530886 6.04366 0.463897 6.11065 0.437108 6.21119C0.403667 6.31834 0.417008 6.41543 0.477344 6.50252L2.28639 8.99493L0.477344 11.4875C0.417008 11.5678 0.403667 11.6649 0.437108 11.7789C0.463862 11.8791 0.530886 11.9462 0.638039 11.98L3.57269 12.9447V16.0201C3.57269 16.1272 3.61624 16.2144 3.70333 16.2814C3.80386 16.3484 3.90109 16.3618 3.9948 16.3217L6.92949 15.377L8.73864 17.8694C8.80559 17.9564 8.89272 18 8.9999 18C9.10709 18 9.19429 17.9564 9.26124 17.8694L11.0703 15.377L14.0051 16.3217C14.0987 16.3619 14.1959 16.3484 14.2962 16.2814C14.3835 16.2144 14.4272 16.1272 14.4272 16.0201V12.9447L17.3617 11.98C17.4689 11.9463 17.5358 11.8792 17.5628 11.7789C17.5964 11.6649 17.5829 11.5678 17.5227 11.4875ZM14.3318 11.2413C14.0269 11.9548 13.6149 12.5712 13.0957 13.0905C12.5764 13.6097 11.9601 14.0218 11.2464 14.3267C10.533 14.6315 9.78413 14.784 9.00019 14.784C8.21625 14.784 7.46761 14.6315 6.75397 14.3267C6.04043 14.0217 5.42398 13.6097 4.90476 13.0905C4.38553 12.5712 3.9735 11.9548 3.66858 11.2413C3.36374 10.5276 3.21131 9.77894 3.21131 8.99493C3.21131 8.21099 3.36377 7.46236 3.66858 6.74872C3.97336 6.03518 4.38553 5.41876 4.90476 4.89943C5.42409 4.38024 6.04043 3.9681 6.75397 3.66333C7.46751 3.35838 8.21625 3.20606 9.00019 3.20606C9.78399 3.20606 10.533 3.35838 11.2464 3.66333C11.9601 3.9681 12.5764 4.38024 13.0957 4.89943C13.6149 5.41876 14.0269 6.03518 14.3318 6.74872C14.6366 7.46236 14.7891 8.2111 14.7891 8.99493C14.7891 9.77894 14.6365 10.5276 14.3318 11.2413Z" fill="white"/>
</svg>
